<?xml version="1.0" encoding="UTF-8"?>
<svg id="Layer_1" data-name="Layer 1" xmlns="http://www.w3.org/2000/svg" viewBox="0 0 841.89 595.28">
  <defs>
    <style>
      .cls-1 {
        fill: #231f20;
        stroke-width: 0px;
      }
    </style>
  </defs>
  <g>
    <path class="cls-1" d="M456.94,333.78c-1.01-.51-2.2-.77-3.58-.77s-2.56.26-3.57.77c-1.01.51-1.8,1.23-2.35,2.17-.56.93-.83,2.04-.83,3.32s.28,2.39.83,3.32c.55.93,1.33,1.66,2.34,2.17,1.01.51,2.2.77,3.57.77s2.57-.26,3.58-.77c1.01-.51,1.79-1.24,2.34-2.18.56-.94.83-2.04.83-3.31s-.28-2.39-.83-3.32c-.55-.93-1.33-1.66-2.34-2.17ZM456.77,342.59c-.82.8-1.95,1.2-3.41,1.2s-2.61-.4-3.43-1.19c-.82-.79-1.23-1.9-1.23-3.33s.41-2.53,1.23-3.33c.82-.79,1.96-1.19,3.42-1.19s2.61.4,3.42,1.19c.81.8,1.22,1.9,1.22,3.33s-.41,2.52-1.23,3.32Z"/>
    <path class="cls-1" d="M435.51,340.57h3.69v2.45c-1.01.52-2.26.78-3.75.78s-2.69-.39-3.52-1.18c-.83-.78-1.25-1.9-1.25-3.34s.39-2.52,1.17-3.34c.78-.81,1.89-1.22,3.34-1.22.96,0,1.73.17,2.33.52.59.34,1.03.87,1.31,1.57l2-.3c-.36-1.1-1.01-1.96-1.95-2.58-.95-.62-2.16-.93-3.64-.93-1.32,0-2.48.25-3.48.76-1,.51-1.77,1.23-2.33,2.17-.56.94-.83,2.07-.83,3.38s.28,2.4.83,3.33c.55.93,1.34,1.64,2.36,2.13,1.02.49,2.24.74,3.65.74,1.09,0,2.13-.14,3.13-.43,1-.29,1.84-.69,2.53-1.22v-4.94h-5.57v1.63Z"/>
    <rect class="cls-1" x="420.54" y="333.31" width="2.02" height="11.91"/>
    <polygon class="cls-1" points="402.71 338.67 398.92 333.31 396.57 333.31 401.66 340.3 401.66 345.22 403.67 345.22 403.67 340.3 408.76 333.31 406.51 333.31 402.71 338.67"/>
    <path class="cls-1" d="M390.1,338.92c1.29-.43,1.93-1.28,1.93-2.55,0-2.03-1.58-3.05-4.75-3.05h-5.49v11.91h5.72c1.63,0,2.87-.29,3.72-.88.85-.59,1.27-1.45,1.27-2.57,0-1.37-.8-2.32-2.4-2.85ZM383.72,334.91h3.45c.99,0,1.71.13,2.16.38.45.25.68.65.68,1.21,0,.6-.21,1.04-.64,1.32-.43.28-1.1.42-2.03.42h-3.62v-3.32ZM389.73,343.18c-.48.29-1.26.44-2.33.44h-3.67v-3.84h3.7c1.02,0,1.78.16,2.28.48s.74.82.74,1.48-.24,1.13-.72,1.43Z"/>
  </g>
  <g>
    <polygon class="cls-1" points="349.81 250.84 315.33 250.84 313.51 250.85 313.51 302.54 346.67 302.54 349.21 299.17 321.24 299.17 321.25 274.52 346.29 274.52 348.83 271.34 321.25 271.34 321.24 254.03 346.67 254.03 349.81 250.84"/>
    <path class="cls-1" d="M283.29,250.68h-20.29v51.86h7.96v-12.62h12.33c11.81,0,22.65-8.65,22.65-19.33v-.58c0-10.68-10.84-19.34-22.65-19.34ZM298.05,270.6h0c0,8.86-5.5,16.04-14.76,16.04h-12.33v-32.69h12.33c9.26,0,14.76,7.18,14.76,16.04v.61Z"/>
    <path class="cls-1" d="M455.4,280.06h9.98v13.14c-.93,2.63-4.64,5.76-9.09,6.5-11.11,1.86-21.13-9.28-22.46-22.05-1.19-11.38,3.13-22.41,14.24-24.27,7.29-1.22,14.46,2.2,19.18,8.29l3.68-2.89c-4.61-5.51-11.3-9-18.76-9-13.87,0-26.3,10.28-26.3,27.87,0,14.76,12.43,25.65,26.3,25.65,5.72,0,10.43-2.16,13.2-5.5v4.46h7.89v-25.38h-19.35l1.48,3.18Z"/>
    <path class="cls-1" d="M561.21,273.95c-8.7-3.15-14.2-4.47-15.38-9.59-.64-2.79.81-10.7,11.93-10.7,6.78,0,11.68,3.77,14.78,8.55l4.62-1.73c-4.03-6.24-10.76-9.52-19.55-9.52-13.06,0-18.57,8.37-18.57,13.65,0,9.62,9.69,12.69,17.68,15.58,9.04,3.27,15.29,5.27,15.25,10.99-.04,5.79-5.43,9.56-11.67,9.56-10.36,0-14.43-4.8-15.66-10.3l-4.99,1c2.03,8.27,9.27,12.45,19.32,12.45s19.91-3.59,19.91-13.47c0-8.77-9.43-13.49-17.68-16.47Z"/>
    <path class="cls-1" d="M399.41,285.74c4.69,0,9.16-1.9,12.5-4.97l.08,3.66h5.61v-32.44h-3.8l-1.97,3.76c-3.33-3.03-7.77-4.9-12.42-4.9-9.52,0-18.58,7.82-18.58,17.44s9.06,17.44,18.58,17.44ZM398.27,253.98c6.2-.81,11.19,3.12,13.04,9.25.31,1.02.54,2.09.67,3.21.19,1.7.14,3.38-.12,4.97-.93,5.82-4.68,10.53-10.36,11.27-7.23.94-13.18-4.62-14.07-12.53-.89-7.92,3.6-15.23,10.84-16.17Z"/>
    <path class="cls-1" d="M506.71,249.75c-13.87,0-26.31,12.01-26.31,26.76s12.44,26.76,26.31,26.76,26.46-12.01,26.46-26.77-12.6-26.75-26.46-26.75ZM510.82,299.67c-11.11,1.86-20.11-7.02-22.38-19.79-2.27-12.77,3.05-24.67,14.16-26.52,11.11-1.85,20.42,6.55,22.69,19.32,2.27,12.77-3.36,25.13-14.47,26.99Z"/>
    <path class="cls-1" d="M398.98,299.97c-4.41,0-8.04-.77-11.55-1.52-3.4-.72-6.92-1.47-10.98-1.47-3.36,0-7,.48-10.45,1.16v-47.69s-7.95,0-7.95,0l-.02,53.14c4.12-1.26,13.84-2.87,18.42-2.68,3.64.15,6.81.67,10.15,1.39,3.71.79,7.55,1.61,12.38,1.61,7.2,0,13.92-2.65,18.63-5.32v-3.36c-9.83,5.01-18.63,4.74-18.63,4.74Z"/>
  </g>
</svg>