<?xml version="1.0" encoding="UTF-8" standalone="no"?>
<svg
   xmlns:dc="http://purl.org/dc/elements/1.1/"
   xmlns:cc="http://creativecommons.org/ns#"
   xmlns:rdf="http://www.w3.org/1999/02/22-rdf-syntax-ns#"
   xmlns:svg="http://www.w3.org/2000/svg"
   xmlns="http://www.w3.org/2000/svg"
   viewBox="0 0 1440 1440"
   height="1440"
   width="1440"
   xml:space="preserve"
   id="svg2"
   version="1.1"><metadata
     id="metadata8"><rdf:RDF><cc:Work
         rdf:about=""><dc:format>image/svg+xml</dc:format><dc:type
           rdf:resource="http://purl.org/dc/dcmitype/StillImage" /></cc:Work></rdf:RDF></metadata><defs
     id="defs6"><clipPath
       id="clipPath20"
       clipPathUnits="userSpaceOnUse"><path
         id="path18"
         d="M 0,1080 H 1080 V 0 H 0 Z" /></clipPath></defs><g
     transform="matrix(1.3333333,0,0,-1.3333333,0,1440)"
     id="g10"><path
       id="path12"
       style="fill:#bd8b5e;fill-opacity:1;fill-rule:nonzero;stroke:none"
       d="M 0,0 H 1080 V 1080 H 0 Z" /><g
       id="g14"><g
         clip-path="url(#clipPath20)"
         id="g16"><g
           transform="translate(378.1955,522.9274)"
           id="g22"><path
             id="path24"
             style="fill:#ffffff;fill-opacity:1;fill-rule:nonzero;stroke:none"
             d="m 0,0 -26.094,65.549 c -1.328,3.566 -1.728,6.266 -1.153,8.305 0.4,2.039 1.553,3.74 3.084,4.917 h -24.366 c 1.732,-1.177 3.461,-3.057 4.813,-5.426 1.328,-2.369 2.684,-5.073 3.635,-7.796 l 32.037,-79.792 h 7.465 l 30.305,79.792 c 0.951,2.545 2.105,4.918 3.262,7.462 1.352,2.548 3.081,4.409 4.988,5.76 H 22.633 c 1.531,-1.177 2.684,-2.878 3.259,-5.072 0.579,-2.214 0.377,-4.918 -0.777,-8.15 z" /></g><g
           transform="translate(528.2496,589.058)"
           id="g26"><path
             id="path28"
             style="fill:#ffffff;fill-opacity:1;fill-rule:nonzero;stroke:none"
             d="m 0,0 v -73.933 c 0,-6.01 -1.658,-10.239 -4.978,-12.512 h 6.446 c 7.55,0 14.901,-1.003 21.713,-2.933 6.964,-1.975 13.619,-4.184 19.667,-6.819 4.434,-1.93 8.485,-3.708 12.699,-5.526 4.054,-1.747 8.269,-3.432 12.505,-4.885 4.226,-1.453 8.657,-2.597 13.247,-3.57 4.617,-0.976 9.569,-1.297 14.719,-1.297 3.126,0 6.439,0.351 9.569,0.98 3.313,0.664 6.256,1.782 9.211,3.078 2.933,1.29 5.713,2.888 8.079,4.889 2.25,1.904 4.039,4.207 5.146,6.819 -5.508,-1.956 -10.847,-3.249 -15.822,-4.229 -4.952,-0.973 -9.74,-1.293 -14.525,-1.293 -8.272,0 -16.399,0.887 -24.649,2.91 -8.317,2.035 -17.111,4.602 -26.501,7.326 -4.58,1.33 -9.927,2.787 -15.628,4.058 -5.887,1.315 -11.95,2.105 -18.035,2.444 V 0 c 0,6.163 1.662,10.24 4.978,12.345 H -4.978 C -1.658,10.24 -0.026,6.163 -0.026,0 Z" /></g><g
           transform="translate(492.3641,572.2216)"
           id="g30"><path
             id="path32"
             style="fill:#ffffff;fill-opacity:1;fill-rule:nonzero;stroke:none"
             d="m 0,0 c 2.878,-5.096 4.917,-10.165 5.935,-15.591 0.994,-5.426 1.173,-10.495 0.509,-15.257 -0.688,-4.918 -2.393,-9.303 -4.918,-13.199 -2.548,-4.078 -5.756,-7.286 -9.83,-9.5 -4.409,-2.704 -9.148,-3.9 -14.395,-3.9 -6.778,0 -13.552,2.039 -20,6.269 -6.599,4.075 -12.021,9.831 -16.251,17.118 -3.057,5.096 -5.096,10.343 -6.114,15.591 -0.998,5.422 -0.998,10.495 -0.334,15.237 0.843,4.914 2.548,9.322 4.917,13.397 2.548,3.896 5.935,7.108 9.831,9.302 4.564,2.723 9.481,3.896 14.399,3.896 6.774,0 13.373,-2.016 19.996,-6.09 C -9.656,13.043 -4.23,7.287 0,0 m -29.477,29.477 c -6.444,0 -12.534,-1.177 -18.135,-3.721 -5.582,-2.393 -10.499,-5.784 -14.729,-9.835 -4.23,-4.23 -7.617,-9.143 -10.01,-14.748 -2.369,-5.756 -3.721,-11.691 -3.721,-18.116 0,-6.599 1.352,-12.534 3.721,-18.135 2.37,-5.582 5.757,-10.499 10.01,-14.729 4.23,-4.23 9.147,-7.617 14.729,-10.009 5.601,-2.545 11.691,-3.721 18.135,-3.721 6.424,0 12.359,1.196 17.96,3.721 5.582,2.369 10.495,5.76 14.729,10.009 4.23,4.23 7.617,9.147 10.01,14.729 2.544,5.601 3.721,11.517 3.721,18.135 0,6.425 -1.197,12.36 -3.721,18.116 -2.37,5.605 -5.761,10.518 -10.01,14.748 -4.234,4.051 -9.147,7.442 -14.729,9.835 -5.601,2.544 -11.536,3.721 -17.96,3.721" /></g><g
           transform="translate(576.2636,588.4769)"
           id="g34"><path
             id="path36"
             style="fill:#ffffff;fill-opacity:1;fill-rule:nonzero;stroke:none"
             d="m 0,0 v -66.571 c 0,-3.231 -0.377,-5.935 -1.328,-8.149 -0.952,-2.194 -2.304,-3.896 -4.036,-5.073 H 9.777 c -1.531,1.177 -2.859,2.879 -3.834,5.073 -0.952,2.214 -1.531,4.918 -1.531,8.149 V 0.684 l 62.314,-80.477 h 4.413 V 0 c 0,3.387 0.575,6.11 1.553,8.304 0.952,2.036 2.106,3.741 3.632,4.918 H 61.188 C 62.916,12.045 64.07,10.34 65.021,8.304 65.973,6.11 66.552,3.387 66.552,0 V -59.129 L 10.751,13.222 H -5.364 C -3.632,12.045 -2.28,10.34 -1.328,8.304 -0.377,6.11 0,3.387 0,0" /></g><g
           transform="translate(702.2222,587.4988)"
           id="g38"><path
             id="path40"
             style="fill:#ffffff;fill-opacity:1;fill-rule:nonzero;stroke:none"
             d="m 0,0 26.108,-65.586 c 1.329,-3.567 1.73,-6.268 1.154,-8.309 -0.4,-2.04 -1.554,-3.742 -3.085,-4.92 h 24.379 c -1.734,1.178 -3.463,3.059 -4.815,5.429 -1.33,2.371 -2.686,5.076 -3.638,7.8 L 8.049,14.251 h -7.47 l -30.321,-79.837 c -0.952,-2.545 -2.106,-4.92 -3.265,-7.465 -1.352,-2.55 -3.082,-4.411 -4.99,-5.764 h 15.351 c -1.531,1.178 -2.685,2.88 -3.26,5.076 -0.579,2.215 -0.377,4.92 0.777,8.153 z" /></g></g></g></g></svg>