<?xml version="1.0" standalone="no"?>
<!DOCTYPE svg PUBLIC "-//W3C//DTD SVG 20010904//EN"
 "http://www.w3.org/TR/2001/REC-SVG-20010904/DTD/svg10.dtd">
<svg version="1.0" xmlns="http://www.w3.org/2000/svg"
 width="770.000000pt" height="577.000000pt" viewBox="0 0 770.000000 577.000000"
 preserveAspectRatio="xMidYMid meet">

<g transform="translate(0.000000,577.000000) scale(0.100000,-0.100000)"
fill="#000000" stroke="none">
<path d="M2307 5584 c-4 -4 -7 -504 -7 -1111 l0 -1103 2058 0 c2013 0 2059 1
2139 20 363 87 613 403 613 775 0 130 -27 242 -87 365 -40 82 -60 109 -147
195 -110 110 -196 163 -329 204 -435 133 -891 -122 -1008 -565 -40 -150 -26
-355 32 -491 l18 -43 -1414 0 -1415 0 -2 878 -3 877 -221 3 c-121 1 -223 -1
-227 -4z m4126 -1100 c47 -17 118 -67 144 -103 57 -76 68 -112 68 -216 0 -92
-2 -104 -29 -153 -34 -61 -95 -120 -158 -154 -37 -20 -58 -23 -143 -23 -90 0
-105 3 -153 28 -167 88 -235 293 -152 457 25 50 95 121 141 146 80 42 193 49
282 18z"/>
<path d="M1226 4959 c-89 -12 -220 -57 -292 -100 -232 -140 -372 -364 -398
-636 l-7 -73 229 0 230 0 7 53 c14 108 89 218 182 266 136 69 302 36 406 -79
77 -86 87 -127 87 -360 l0 -200 -392 0 c-219 0 -422 -5 -458 -10 -278 -44
-487 -220 -581 -490 -21 -60 -23 -87 -27 -323 l-4 -257 229 2 228 3 5 220 c6
248 12 272 87 334 73 61 75 61 755 61 l619 0 -3 473 -3 472 -33 95 c-112 322
-382 531 -717 553 -44 3 -111 1 -149 -4z"/>
<path d="M965 3206 c-102 -47 -159 -157 -136 -262 39 -172 236 -245 374 -140
114 87 127 238 30 346 -72 80 -172 101 -268 56z"/>
<path d="M5885 2409 c-261 -38 -478 -151 -666 -345 -132 -138 -223 -299 -275
-489 -25 -91 -28 -115 -28 -275 0 -157 3 -185 26 -272 84 -311 279 -562 553
-709 175 -94 335 -133 545 -133 311 1 546 97 755 308 183 185 278 397 301 672
9 105 0 146 -39 191 -56 64 -47 63 -577 63 l-480 0 0 -195 0 -195 301 0 300 0
-6 -22 c-36 -127 -150 -260 -275 -321 -320 -157 -706 -24 -865 298 -55 112
-70 182 -69 325 1 107 5 137 27 205 70 211 217 361 426 432 64 22 94 26 191
27 131 0 205 -16 309 -67 73 -35 192 -146 226 -209 11 -21 23 -38 27 -38 4 0
101 45 214 100 l206 100 -27 47 c-64 111 -194 251 -295 320 -217 147 -541 220
-805 182z"/>
<path d="M453 2366 c-70 -23 -131 -64 -173 -117 -73 -93 -70 -44 -70 -1091 l0
-938 225 0 225 0 2 683 3 683 311 -680 310 -681 163 0 162 0 312 683 312 683
3 -685 2 -686 225 0 225 0 -2 953 -3 952 -26 56 c-53 112 -156 184 -282 196
-129 12 -259 -53 -321 -160 -14 -23 -153 -328 -311 -677 -157 -349 -289 -638
-293 -642 -4 -4 -142 293 -307 659 -230 509 -309 676 -338 709 -56 63 -148
106 -240 110 -43 3 -89 -2 -114 -10z"/>
<path d="M3803 2362 c-64 -23 -116 -62 -150 -113 -20 -31 -791 -1923 -818
-2010 -6 -19 0 -19 231 -17 l238 3 91 230 91 230 409 0 409 0 81 -207 c45
-114 87 -219 93 -233 l12 -25 241 0 c204 0 240 2 236 14 -3 8 -185 461 -404
1006 -438 1091 -419 1052 -528 1106 -73 35 -161 41 -232 16z m231 -941 c69
-178 126 -325 126 -327 0 -2 -120 -4 -266 -4 -249 0 -266 1 -259 18 4 9 60
157 125 327 65 171 122 319 126 329 7 19 7 19 15 0 4 -10 64 -165 133 -343z"/>
<path d="M7195 612 c-164 -79 -166 -299 -3 -383 45 -23 125 -25 176 -4 152 64
172 273 34 369 -55 39 -146 47 -207 18z m181 -37 c100 -59 122 -187 47 -276
-68 -81 -199 -85 -269 -7 -55 60 -68 132 -35 203 45 98 163 135 257 80z"/>
<path d="M7210 420 c0 -82 3 -100 15 -100 11 0 15 11 15 40 0 35 3 40 23 40
17 0 28 -10 40 -35 16 -33 42 -54 53 -42 3 2 -4 20 -15 38 -20 32 -20 33 -1
46 23 16 28 81 8 101 -7 7 -39 12 -75 12 l-63 0 0 -100z m115 40 c0 -34 -1
-35 -42 -38 l-43 -3 0 41 0 41 43 -3 c41 -3 42 -4 42 -38z"/>
</g>
</svg>
