<?xml version="1.0" encoding="UTF-8"?>
<svg id="Layer_1" data-name="Layer 1" xmlns="http://www.w3.org/2000/svg" version="1.1" viewBox="0 0 1080 1080">
  <defs>
    <style>
      .cls-1 {
        fill: #231f20;
        stroke-width: 0px;
      }
    </style>
  </defs>
  <g>
    <g>
      <path class="cls-1" d="M391.35,536.82c-9.7,0-10.95-6.41-10.95-12.1v-39.25h-5.25v-1.69c11.3-1.96,15.57-14.06,15.84-14.95h1.33v14.95h8.28v1.69h-8.28v40.58c0,4.09,2.05,5.61,4,5.61,2.67,0,4.27-2.4,5.25-4.27,0,0,.18,0,.89.53-1.25,3.11-4.36,8.9-11.12,8.9Z"/>
      <path class="cls-1" d="M465.04,535.13v1.69h-22.43v-1.69c2.94,0,5.25-2.4,5.25-5.25v-30.08c0-6.85-3.38-11.75-10.77-11.75-5.43,0-10.77,5.78-12.99,9.08v32.75c0,1.42.62,2.76,1.51,3.65.98.98,2.31,1.6,3.74,1.6v1.69h-22.43v-1.69c2.85,0,5.25-2.4,5.25-5.25v-62.21c0-2.94-2.4-5.25-5.25-5.25v-1.69l17.18-2.67v35.87c3.92-4.27,9.34-10.23,19.22-10.23,13.62,0,16.46,9.25,16.46,19.13v27.06c0,1.42.62,2.76,1.6,3.65.89.98,2.23,1.6,3.65,1.6Z"/>
      <path class="cls-1" d="M518.87,511.11h-37.2c1.51,13.53,10.41,19.31,18.33,19.31,4.72,0,11.21-1.78,14.77-6.76l.8.8c-3.83,7.39-10.95,12.37-20.56,12.37-15.66,0-25.19-11.39-25.54-25.72v-1.69c.36-14.24,9.08-25.72,24.65-25.72s24.38,11.48,24.74,25.72v1.69ZM481.49,509.41h25.36c-.18-13.35-5.79-23.94-12.73-23.94s-12.73,9.43-12.73,21.63c0,.8.09,1.51.09,2.31Z"/>
    </g>
    <g>
      <path class="cls-1" d="M425.53,609.1c3.74,5.25,6.32,9.25,11.21,12.99h-10.06c-4.45,0-8.63-2.31-10.95-6.05l-23.14-32.93-.18-.27v32.31c0,2.85,2.31,5.25,5.25,5.25v1.69h-22.52v-1.69c2.94,0,5.25-2.4,5.25-5.25v-63.99c0-2.85-2.31-5.25-5.25-5.25v-1.69h33.64c18.24,0,21.18,12.99,21.18,19.13,0,10.68-6.94,19.76-23.23,19.76l18.78,25.99ZM398.56,581.42c2.49,0,4.72-.18,6.67-.71,8.72-1.96,12.82-7.92,12.82-17,0-9.79-6.05-17.8-19.49-17.8h-6.14v35.51h6.14Z"/>
      <path class="cls-1" d="M490.57,596.37h-37.2c1.51,13.53,10.41,19.31,18.33,19.31,4.72,0,11.21-1.78,14.77-6.76l.8.8c-3.83,7.39-10.95,12.37-20.56,12.37-15.66,0-25.19-11.39-25.54-25.72v-1.69c.35-14.24,9.08-25.72,24.65-25.72s24.38,11.48,24.74,25.72v1.69ZM453.19,594.68h25.36c-.18-13.35-5.79-23.94-12.73-23.94s-12.73,9.43-12.73,21.63c0,.8.09,1.51.09,2.31Z"/>
      <path class="cls-1" d="M529.01,594.86s10.06,4.98,10.06,12.82v.18c-.18,10.77-11.57,14.24-20.56,14.24h-1.6c-9.97-.53-18.33-5.52-21.89-8.28l8.9-14.68c0,.71-.09,1.42-.09,2.13,0,12.73,6.85,18.87,13.71,19.13h.44c3.56,0,8.81-.98,9.17-7.48v-.53c0-4.09-2.85-6.67-5.87-8.37l-15.4-8.37s-8.46-4.18-8.46-12.19c0-9.88,9.17-14.51,19.4-14.51h.62c8.99.18,16.2,4.54,20.74,9.52l-9.97,10.77c.27-1.34.35-2.76.35-4.09,0-7.3-3.47-14.33-11.92-14.51h-.27c-3.56,0-9.08,1.78-9.08,7.21,0,4.98,6.76,8.45,10.14,10.23l11.57,6.76Z"/>
      <path class="cls-1" d="M566.11,620.4v1.69h-22.43v-1.69c2.85,0,5.25-2.4,5.25-5.25v-37.38c0-2.94-2.4-5.25-5.25-5.25v-1.69l17.18-2.67v46.99c0,1.42.62,2.76,1.51,3.65.98.98,2.31,1.6,3.74,1.6ZM546.8,551.79c0-4.18,3.38-7.48,7.57-7.48s7.48,3.29,7.48,7.48-3.38,7.48-7.48,7.48-7.57-3.38-7.57-7.48Z"/>
      <path class="cls-1" d="M621.46,615.15c0,2.85,2.31,5.25,5.16,5.25v1.69h-17.18v-8.63c-3.56,5.34-9.34,8.63-16.2,8.63-13.44,0-22.69-11.03-22.69-25.72,0-16.11,8.72-27.41,24.65-27.41h.18c4.9,0,9.79,1.51,14.06,4.09v-20.11c0-2.94-2.31-5.25-5.25-5.25v-1.69l17.26-2.67v71.82ZM609.45,609.9v-29.19c-.98-5.25-6.05-10.06-11.66-10.06-9.52,0-15.31,10.5-15.31,24.21,0,15.31,6.59,22.69,15.04,22.69,4.36,0,9.61-2.94,11.93-7.65Z"/>
      <path class="cls-1" d="M680.46,596.37h-37.2c1.51,13.53,10.41,19.31,18.33,19.31,4.72,0,11.21-1.78,14.77-6.76l.8.8c-3.83,7.39-10.95,12.37-20.56,12.37-15.66,0-25.19-11.39-25.54-25.72v-1.69c.36-14.24,9.08-25.72,24.65-25.72s24.38,11.48,24.74,25.72v1.69ZM643.08,594.68h25.36c-.18-13.35-5.79-23.94-12.73-23.94s-12.73,9.43-12.73,21.63c0,.8.09,1.51.09,2.31Z"/>
      <path class="cls-1" d="M743.02,620.31v1.78h-22.43v-1.78c2.94,0,5.25-2.31,5.25-5.25v-30.08c0-6.85-2.85-11.66-10.06-11.66-4.63,0-10.41,4.54-13.71,8.99v32.84c0,1.42.62,2.67,1.6,3.65.89.98,2.22,1.51,3.65,1.51v1.78h-22.43v-1.78c2.94,0,5.25-2.31,5.25-5.16v-36.58c0-2.85-2.31-5.25-5.25-5.25v-1.69l17.18-2.67v10.23c3.92-4.36,9.61-10.23,19.22-10.23,13.62,0,16.46,9.17,16.46,19.13v26.97c0,1.51.62,2.76,1.6,3.74.89.98,2.22,1.51,3.65,1.51Z"/>
      <path class="cls-1" d="M785.37,593.26c0-.09.09-1.16.09-2.76,0-5.96-1.16-19.76-12.01-19.76-8.28,0-14.06,9.43-14.06,21.63,0,16.38,9.34,23.32,18.6,23.32,5.79,0,12.37-2.67,16.02-7.39l.8.8c-3.47,7.48-10.32,12.99-21.54,12.99-15.57,0-25.45-11.39-25.81-25.72v-1.69c.36-14.24,8.9-25.72,25.72-25.72s21.63,12.9,21.63,13.44l-9.43,10.86Z"/>
      <path class="cls-1" d="M848.73,596.37h-37.2c1.51,13.53,10.41,19.31,18.33,19.31,4.72,0,11.21-1.78,14.77-6.76l.8.8c-3.83,7.39-10.95,12.37-20.56,12.37-15.66,0-25.19-11.39-25.54-25.72v-1.69c.36-14.24,9.08-25.72,24.65-25.72s24.38,11.48,24.74,25.72v1.69ZM811.35,594.68h25.36c-.18-13.35-5.79-23.94-12.73-23.94s-12.73,9.43-12.73,21.63c0,.8.09,1.51.09,2.31Z"/>
    </g>
  </g>
  <path class="cls-1" d="M337.47,594.7l-39.59-54.79c34.34,0,48.97-19.14,48.97-41.66,0-12.95-6.19-40.34-44.65-40.34h-70.93v3.56h49.35c28.33,0,41.09,16.89,41.09,37.53,0,19.14-8.63,31.71-27.02,35.84-4.13,1.13-8.82,1.5-14.07,1.5h-12.95v-22.52h17.26v-3.57h-17.45v-31.52h-2.81c-.56,1.88-9.57,27.39-33.4,31.52v3.57h11.07v82.75c0,12.01,2.63,25.52,23.08,25.52,14.26,0,20.83-12.19,23.45-18.76-1.5-1.13-1.88-1.13-1.88-1.13-2.07,3.94-5.44,9.01-11.07,9.01-4.13,0-8.45-3.19-8.45-11.82v-6.74l.19-53.31.38.56,48.78,69.42c4.88,7.88,13.7,12.76,23.08,12.76h21.2c-10.32-7.88-15.76-16.32-23.64-27.39Z"/>
</svg>